<?xml version="1.0" encoding="UTF-8" standalone="no"?><!DOCTYPE svg PUBLIC "-//W3C//DTD SVG 1.1//EN" "http://www.w3.org/Graphics/SVG/1.1/DTD/svg11.dtd"><svg width="100%" height="100%" viewBox="0 0 300 300" version="1.1" xmlns="http://www.w3.org/2000/svg" xmlns:xlink="http://www.w3.org/1999/xlink" xml:space="preserve" style="fill-rule:evenodd;clip-rule:evenodd;stroke-linecap:round;stroke-linejoin:round;stroke-miterlimit:1.41421;"><g id="clothing_2"><path d="M160.655,225.601c14.349,2.885 16.05,4.717 21.506,13.854c21.96,6.045 42.348,29.67 39.278,59.791l-3.988,-0.017l-135.641,-0.579c-1.222,-37.053 18.339,-55.349 42.143,-60.061c4.184,-7.226 7.984,-10.855 24.018,-13.239l12.684,0.251Z" style="fill:#ffd2ad;stroke-width:3px;stroke:#4e4e4e;"/></g><g id="head"><path d="M223.822,144.559c0,-33.805 -27.405,-61.21 -61.21,-61.21c-5.722,0 -11.521,0 -17.243,0c-33.805,0 -61.21,27.405 -61.21,61.21c0,10.142 0,20.662 0,30.811c0,16.427 6.529,32.179 18.15,43.789c11.62,11.61 27.379,18.125 43.806,18.109c5.379,0.003 10.803,0.008 16.157,0.008c34.045,-0.191 61.543,-27.844 61.543,-61.889c0.007,-10.155 0.007,-20.681 0.007,-30.828Z" style="fill:#ffd2ad;stroke-width:3px;stroke:#4e4e4e;"/></g></svg>